<?xml version="1.0" standalone="no"?>
<!DOCTYPE svg PUBLIC "-//W3C//DTD SVG 20010904//EN"
 "http://www.w3.org/TR/2001/REC-SVG-20010904/DTD/svg10.dtd">
<svg version="1.0"
    xmlns="http://www.w3.org/2000/svg" width="1240.000000pt" height="1240.000000pt" viewBox="0 0 1240.000000 1240.000000" preserveAspectRatio="xMidYMid meet">
    <metadata>
Created by potrace 1.16, written by Peter Selinger 2001-2019
    </metadata>
    <g transform="translate(0.000000,1240.000000) scale(0.100000,-0.100000)" stroke="none">
        <path d="M5230 12130 c-374 -36 -708 -140 -992 -309 -144 -86 -226 -149 -352
-271 -320 -309 -498 -648 -582 -1110 -22 -121 -25 -463 -6 -595 69 -455 254
-794 515 -944 209 -119 496 -85 846 101 164 87 291 165 686 423 398 259 586
376 798 494 490 274 744 322 996 191 146 -76 251 -185 355 -366 99 -174 148
-340 166 -562 28 -357 -63 -782 -259 -1205 l-41 -88 53 57 c160 176 326 422
442 659 128 260 188 440 237 715 20 108 23 158 22 370 0 259 -6 305 -60 521
-123 493 -429 987 -812 1310 -356 301 -845 506 -1407 590 -151 23 -462 32
-605 19z"/>
        <path d="M5790 9264 c-312 -67 -591 -240 -851 -528 -185 -205 -311 -391 -449
-668 -151 -302 -241 -546 -324 -878 -80 -316 -116 -576 -116 -835 0 -255 26
-436 92 -646 l32 -100 38 148 c77 297 198 614 313 821 121 217 278 392 414
460 75 38 91 42 155 42 121 0 207 -53 290 -179 77 -115 132 -280 157 -466 18
-137 7 -463 -20 -600 -77 -387 -224 -731 -606 -1415 -465 -831 -631 -1213
-744 -1705 -98 -427 -107 -892 -23 -1245 46 -194 138 -406 248 -573 63 -94
253 -289 354 -361 162 -117 375 -212 590 -265 185 -45 273 -54 500 -55 405 0
783 88 1139 265 436 217 808 589 1031 1034 156 311 226 573 237 880 8 217 -19
386 -87 548 -141 338 -495 613 -827 644 l-65 6 37 -72 c52 -105 119 -271 154
-386 165 -542 66 -999 -264 -1222 -110 -74 -206 -105 -326 -104 -275 2 -487
238 -572 635 -19 90 -22 131 -21 366 1 188 7 333 23 500 94 1016 143 1328 411
2645 163 802 224 1151 272 1560 17 150 17 662 0 780 -20 133 -60 278 -107 385
-132 305 -376 515 -673 580 -105 24 -313 26 -412 4z"/>
    </g>
</svg>
